<svg xmlns="http://www.w3.org/2000/svg" viewBox="0 0 168 20.901">
  <defs>
    <style>
      .cls-1 {
        fill: #e6e7e8;
      }

      .cls-2 {
        fill: #78cdd1;
      }
    </style>
  </defs>
  <g id="Group_51" data-name="Group 51" transform="translate(-471 -358)">
    <path id="Path_1" data-name="Path 1" class="cls-1" d="M119.44.577V3.658a.27.27,0,0,1-.277.277h-5.176V20.806a.27.27,0,0,1-.277.277h-3.082a.27.27,0,0,1-.277-.277V3.9h-5.176a.27.27,0,0,1-.277-.277V.577A.27.27,0,0,1,105.177.3h13.987A.27.27,0,0,1,119.44.577Z" transform="translate(407.547 357.819)"/>
    <path id="Path_2" data-name="Path 2" class="cls-1" d="M72.636.3H59.677A.27.27,0,0,0,59.4.577v20.19a.27.27,0,0,0,.277.277H72.6a.27.27,0,0,0,.277-.277V17.685a.27.27,0,0,0-.277-.277H63.035V13.418h7.349a.27.27,0,0,0,.277-.277V10.059a.27.27,0,0,0-.277-.277H63.035V3.975h9.6a.27.27,0,0,0,.277-.277V.577A.27.27,0,0,0,72.636.3Z" transform="translate(435.069 357.819)"/>
    <path id="Path_3" data-name="Path 3" class="cls-1" d="M16.555.275h-3a.27.27,0,0,0-.277.277V12.128L.474.314A.42.42,0,0,0,.158.275.333.333,0,0,0,0,.552v20.19a.27.27,0,0,0,.277.277h3a.27.27,0,0,0,.277-.277V8.928L16.318,20.939a.3.3,0,0,0,.2.079.145.145,0,0,0,.119-.04.265.265,0,0,0,.158-.277V.552A.222.222,0,0,0,16.555.275Z" transform="translate(471 357.844)"/>
    <path id="Path_4" data-name="Path 4" class="cls-1" d="M166.2.3h-12.92A.27.27,0,0,0,153,.577v20.19a.27.27,0,0,0,.277.277H166.2a.27.27,0,0,0,.277-.277V17.685a.27.27,0,0,0-.277-.277h-9.6V13.418h7.349a.27.27,0,0,0,.277-.277V10.059a.27.27,0,0,0-.277-.277H156.6V3.975h9.6a.27.27,0,0,0,.277-.277V.577A.27.27,0,0,0,166.2.3Z" transform="translate(378.452 357.819)"/>
    <path id="Path_5" data-name="Path 5" class="cls-1" d="M216.954,20.427l-4.583-5.848c1.027-.751,3.951-1.778,3.872-6.993C216.2,3.4,212.054.158,207.748.079L202.177,0a.27.27,0,0,0-.277.277V20.585a.27.27,0,0,0,.277.277h3.2a.27.27,0,0,0,.277-.277V15.844h2.924l3.912,4.939a.239.239,0,0,0,.237.119h4.07a.4.4,0,0,0,.277-.158C217.033,20.625,217.033,20.506,216.954,20.427Zm-9.206-8.337h-2.094V3.675h2.094c1.462,0,4.9,1.067,4.9,4.386C212.647,11.419,209.051,12.09,207.748,12.09Z" transform="translate(348.872 358)"/>
    <path id="Path_6" data-name="Path 6" class="cls-1" d="M269.954,20.427l-4.583-5.848c1.027-.751,3.951-1.778,3.872-6.993C269.2,3.4,265.054.158,260.748.079L255.177,0a.27.27,0,0,0-.277.277V20.585a.27.27,0,0,0,.277.277h3.2a.27.27,0,0,0,.277-.277V15.844h2.924l3.912,4.939a.239.239,0,0,0,.237.119h4.07a.4.4,0,0,0,.277-.158C270.033,20.625,270.033,20.506,269.954,20.427Zm-9.206-8.337h-2.094V3.675h2.094c1.462,0,4.9,1.067,4.9,4.386C265.647,11.419,262.051,12.09,260.748,12.09Z" transform="translate(316.813 358)"/>
    <path id="Path_7" data-name="Path 7" class="cls-2" d="M344.71,39.7a2.41,2.41,0,1,0,2.41,2.41A2.395,2.395,0,0,0,344.71,39.7Z" transform="translate(263.946 333.986)"/>
    <path id="Path_8" data-name="Path 8" class="cls-2" d="M366.129.577l.751,3.082a.27.27,0,0,1-.277.277h-5.176V20.806a.27.27,0,0,1-.277.277h-3.082a.27.27,0,0,1-.277-.277V3.9h-5.215a.27.27,0,0,1-.277-.277V.577A.27.27,0,0,1,352.577.3h13.276A.27.27,0,0,1,366.129.577Z" transform="translate(257.897 357.819)"/>
    <path id="Path_9" data-name="Path 9" class="cls-2" d="M378.4.577V.656l8.969,20.23a.321.321,0,0,0,.553,0L396.891.656V.577c0-.079,0-.119-.04-.158A.282.282,0,0,0,396.614.3H393.3a.4.4,0,0,0-.277.158l-3.161,7.389-2.213,5.176-2.213-5.176L382.272.458A.265.265,0,0,0,382,.3h-3.319a.282.282,0,0,0-.237.119A.238.238,0,0,0,378.4.577Z" transform="translate(242.109 357.819)"/>
    <g id="Group_1" data-name="Group 1" transform="translate(590.757 358.079)">
      <path id="Path_10" data-name="Path 10" class="cls-1" d="M316.692,18.177a4.3,4.3,0,0,1,2.173-3.754L312.622.358a.321.321,0,0,0-.553,0L303.1,20.588v.079c0,.079,0,.119.04.158a.282.282,0,0,0,.237.119H306.7a.4.4,0,0,0,.277-.158l3.161-7.389,2.213-5.176,2.213,5.176,2.134,4.939Z" transform="translate(-303.1 -0.2)"/>
    </g>
  </g>
</svg>
